<svg width="164" height="199" viewBox="0 0 164 199" fill="none" xmlns="http://www.w3.org/2000/svg">
<path d="M136.458 58.0488L81.5547 36.422C79.4993 35.6123 77.1767 36.6222 76.367 38.6777L36.127 140.833C35.3173 142.888 36.3272 145.211 38.3827 146.021L93.2856 167.647C95.341 168.457 97.6636 167.447 98.4733 165.392L138.713 63.2365C139.523 61.1811 138.513 58.8585 136.458 58.0488Z" stroke="#2C6693" stroke-width="4" stroke-linecap="round"/>
<path d="M76.367 38.678C77.177 36.622 79.499 35.613 81.555 36.422L136.458 58.049C138.513 58.859 139.523 61.181 138.713 63.237L135.009 72.641L72.663 48.082L76.367 38.678Z" stroke="#2C6693" stroke-width="4" stroke-linecap="round"/>
<path d="M36.127 140.833C35.318 142.888 36.328 145.211 38.383 146.02L93.286 167.647C95.341 168.457 97.664 167.447 98.474 165.392L102.178 155.988L39.832 131.429L36.127 140.833Z" stroke="#2C6693" stroke-width="4" stroke-linecap="round"/>
<path d="M100.843 51.601L110.687 55.479" stroke="#2C6693" stroke-width="4" stroke-linecap="round"/>
<path d="M115.281 57.288L116.593 57.805" stroke="#2C6693" stroke-width="4" stroke-linecap="round"/>
<path d="M92.973 89.83L79.429 84.495C78.362 84.074 77.152 84.6 76.732 85.667L74.826 90.505L76.761 91.267L77.905 88.364L82.267 95.447C82.385 95.638 82.562 95.786 82.771 95.869C82.981 95.951 83.211 95.964 83.428 95.904L91.449 93.7L88.019 102.407L80.279 99.358L79.517 101.293L87.257 104.341C88.324 104.762 89.534 104.236 89.954 103.169L94.146 92.527C94.566 91.46 94.04 90.25 92.973 89.83ZM83.629 93.692L79.311 86.683L91.567 91.511L83.629 93.692Z" fill="#2C6693"/>
<path d="M72.51 90.71L79.282 93.377L78.52 95.312L71.748 92.645L72.51 90.71ZM73.302 94.374L79.107 96.661L78.344 98.596L72.54 96.309L73.302 94.374ZM75.061 98.42L78.931 99.944L78.169 101.879L74.299 100.355L75.061 98.42Z" fill="#2C6693"/>
<path d="M92.286 106.074C92.687 105.057 93.399 104.192 94.32 103.602C95.241 103.013 96.325 102.729 97.416 102.791C98.508 102.852 99.553 103.257 100.401 103.947C101.25 104.636 101.86 105.576 102.144 106.632C102.427 107.688 102.371 108.807 101.982 109.829C101.594 110.851 100.893 111.725 99.979 112.325C99.065 112.926 97.985 113.224 96.893 113.175C95.8 113.127 94.751 112.735 93.894 112.056C93.746 111.939 93.57 111.865 93.383 111.84C93.196 111.816 93.007 111.843 92.834 111.918L92.487 112.069L90.185 113.07L89.619 112.846C89.105 112.644 88.533 112.654 88.027 112.874C87.521 113.094 87.124 113.506 86.922 114.019C86.408 113.817 85.836 113.827 85.33 114.047C84.824 114.267 84.427 114.679 84.224 115.192L82.29 114.43L83.275 111.928L90.971 108.581L91.318 108.431C91.49 108.356 91.639 108.235 91.749 108.082C91.858 107.929 91.924 107.749 91.939 107.561C91.981 107.051 92.098 106.55 92.286 106.074ZM99.791 101.208C98.784 100.81 97.7 100.643 96.62 100.718C95.54 100.793 94.49 101.107 93.547 101.639C92.603 102.171 91.791 102.907 91.168 103.793C90.545 104.678 90.128 105.692 89.946 106.76L82.446 110.021C81.94 110.241 81.542 110.652 81.34 111.166L80.355 113.667C80.153 114.181 80.163 114.753 80.382 115.259C80.602 115.765 81.014 116.162 81.527 116.364L83.462 117.127C83.975 117.329 84.548 117.319 85.054 117.099C85.559 116.879 85.957 116.467 86.159 115.954C86.673 116.156 87.245 116.146 87.751 115.926C88.257 115.706 88.654 115.294 88.856 114.781L89.423 115.004C89.936 115.206 90.509 115.196 91.015 114.976L93.121 114.061C93.972 114.62 94.932 114.994 95.937 115.159C96.942 115.325 97.971 115.277 98.956 115.02C99.942 114.762 100.863 114.301 101.659 113.665C102.455 113.03 103.109 112.234 103.578 111.33C104.047 110.426 104.321 109.433 104.383 108.416C104.444 107.399 104.291 106.381 103.935 105.427C103.578 104.473 103.024 103.604 102.311 102.877C101.597 102.151 100.738 101.582 99.791 101.208ZM98.267 105.077C98.01 104.976 97.724 104.981 97.471 105.091C97.218 105.201 97.019 105.407 96.918 105.664C96.817 105.92 96.822 106.206 96.932 106.459C97.042 106.712 97.248 106.911 97.504 107.012C97.761 107.113 97.967 107.312 98.077 107.565C98.187 107.818 98.192 108.104 98.091 108.361C97.99 108.617 97.995 108.903 98.105 109.156C98.215 109.409 98.421 109.608 98.677 109.709C98.934 109.81 99.22 109.805 99.473 109.695C99.726 109.585 99.925 109.379 100.026 109.123C100.329 108.353 100.314 107.494 99.984 106.736C99.654 105.977 99.036 105.38 98.267 105.077Z" fill="#2C6693"/>
<path d="M149.169 100.203C152.431 101.488 156.118 99.8857 157.403 96.6236C158.687 93.3615 157.085 89.6754 153.823 88.3905C150.561 87.1055 146.874 88.7083 145.59 91.9703C144.305 95.2324 145.907 98.9185 149.169 100.203Z" fill="#2C6693"/>
<path d="M107.767 197.612C111.029 198.896 114.716 197.294 116 194.032C117.285 190.77 115.683 187.083 112.421 185.799C109.159 184.514 105.472 186.116 104.188 189.378C102.903 192.64 104.505 196.327 107.767 197.612Z" fill="#2C6693"/>
<path d="M156.655 41.7461C159.374 42.8169 162.445 41.4813 163.516 38.7629C164.587 36.0445 163.251 32.9727 160.533 31.9019C157.814 30.8311 154.743 32.1668 153.672 34.8852C152.601 37.6035 153.937 40.6753 156.655 41.7461Z" fill="#2C6693"/>
<path d="M24.1301 97.1941C26.8485 98.2649 29.9203 96.9293 30.9911 94.2109C32.0619 91.4925 30.7262 88.4207 28.0078 87.3499C25.2894 86.2791 22.2177 87.6148 21.1469 90.3331C20.0761 93.0515 21.4117 96.1233 24.1301 97.1941Z" fill="#2C6693"/>
<path d="M23.2439 65.7626C25.4186 66.6193 27.8761 65.5508 28.7327 63.3761C29.5893 61.2014 28.5208 58.744 26.3461 57.8873C24.1714 57.0307 21.714 58.0992 20.8574 60.2739C20.0007 62.4486 21.0692 64.906 23.2439 65.7626Z" fill="#2C6693"/>
<path d="M138.75 161.296C144.549 163.581 151.102 160.731 153.386 154.932C155.671 149.133 152.821 142.58 147.022 140.296C141.223 138.011 134.67 140.861 132.386 146.66C130.101 152.459 132.951 159.012 138.75 161.296Z" fill="#2C6693"/>
<path d="M45.8348 27.6584C51.634 29.9428 58.1871 27.0934 60.4714 21.2942C62.7558 15.495 59.9064 8.94196 54.1072 6.65759C48.308 4.37321 41.755 7.22256 39.4706 13.0218C37.1862 18.821 40.0356 25.374 45.8348 27.6584Z" fill="#2C6693"/>
<path d="M77.3159 11.2512C80.2155 12.3934 83.492 10.9687 84.6342 8.06912C85.7764 5.16951 84.3517 1.89297 81.4521 0.750779C78.5525 -0.391409 75.276 1.03328 74.1338 3.93289C72.9916 6.83251 74.4162 10.109 77.3159 11.2512Z" fill="#2C6693"/>
<path d="M4.83085 150.999C8.45537 152.427 12.551 150.646 13.9787 147.021C15.4064 143.397 13.6257 139.301 10.0011 137.873C6.37662 136.446 2.28094 138.226 0.853206 141.851C-0.574529 145.475 1.20634 149.571 4.83085 150.999Z" fill="#2C6693"/>
<path d="M67.4554 153.681C69.2677 154.395 71.3155 153.505 72.0294 151.693C72.7432 149.88 71.8528 147.832 70.0405 147.119C68.2283 146.405 66.1804 147.295 65.4666 149.107C64.7527 150.92 65.6431 152.968 67.4554 153.681Z" stroke="#2C6693" stroke-width="2"/>
</svg>

